<mxfile host="drawio-plugin" modified="2022-02-27T06:07:03.051Z" agent="5.0 (Macintosh; Intel Mac OS X 12_2_1) AppleWebKit/537.36 (KHTML, like Gecko) Chrome/89.0.4389.90 Safari/537.36" etag="ZqdcXcGNqlrYEbfgVqd_" version="15.5.4" type="embed"><diagram id="23iRSUPoRavnBvh4doch" name="哲学家就餐"><mxGraphModel dx="875" dy="546" grid="1" gridSize="10" guides="1" tooltips="1" connect="1" arrows="1" fold="1" page="1" pageScale="1" pageWidth="827" pageHeight="1169" math="0" shadow="0"><root><mxCell id="0"/><mxCell id="1" parent="0"/></root></mxGraphModel></diagram></mxfile>